<?xml version="1.0" encoding="utf-8" ?>	<!-- Generator: Assembly 2.2 - http://assemblyapp.co -->	<svg version="1.1" xmlns="http://www.w3.org/2000/svg" xmlns:xlink="http://www.w3.org/1999/xlink" width="2048.00" height="2048.00" viewBox="0 0 2048.0 2048.0">		<g id="document" transform="matrix(1,0,0,1,1024.0,1024.0)">			<path d="M-699.617,702.831 L-992.255,-0.965072 L-703.638,-700.423 L0.158888,-993.061 L703.524,-702.831 L992.255,-0.647307 L703.638,698.811 L3.74865,993.061 L-699.617,702.831 Z " fill="#2c1548" fill-opacity="1.00" />			<path d="M-388.971,31.1836 C-430.042,-43.3528 -452.859,-127.016 -452.859,-215.243 C-443.732,-692.885 113.01,-924.1 537.411,-651.814 C68.8962,-1099.03 -601.932,-762.858 -600.411,-204.595 C-600.411,111.805 -346.378,368.879 -29.9787,374.964 C-23.8941,374.964 -19.3306,376.485 -13.246,376.485 C-4.11912,376.485 8.05008,376.485 15.6558,374.964 C-58.8806,416.035 -142.544,438.852 -230.771,438.852 C-708.412,429.725 -939.628,-127.016 -667.341,-551.418 C-1114.56,-82.9028 -778.385,587.925 -220.123,586.404 C96.2769,586.404 353.352,332.372 359.436,15.9721 C359.436,9.88744 360.957,5.324 360.957,-0.760634 C360.957,-9.88752 359.436,-20.5356 359.436,-29.6625 C400.507,44.8739 423.325,128.537 423.325,216.764 C415.719,692.885 -142.544,922.579 -566.945,650.292 C-98.4306,1100.55 572.397,764.379 570.876,206.116 C570.876,-110.284 316.844,-367.358 0.444322,-373.443 C-5.64031,-373.443 -10.2038,-374.964 -16.2884,-374.964 C-25.4153,-374.964 -36.0633,-373.443 -45.1902,-373.443 C29.3462,-414.514 113.01,-437.331 201.236,-437.331 C678.878,-428.204 910.093,128.537 637.807,552.939 C1085.03,84.4239 748.851,-586.404 190.588,-584.883 C-125.811,-584.883 -382.886,-330.851 -388.971,-14.451 C-388.971,-8.36634 -390.492,-3.80289 -390.492,2.28174 C-390.492,11.4086 -388.971,22.0567 -388.971,31.1836 Z " fill="#ffffff" fill-opacity="0.06" />			<path d="M-833.413,1450.76 L-1674.54,3.85836 L-833.413,-1450.76 L837.271,-1450.76 L1674.54,3.85836 L837.271,1450.76 L-833.413,1450.76 Z " fill="none" />			<path d="M865.428,-310.074 L736.681,-623.181 C715.731,-608.979 697.586,-589.937 684.081,-566.546 C636.33,-483.839 664.668,-378.083 747.374,-330.333 C784.523,-308.885 826.323,-302.788 865.428,-310.074 Z " fill="#83852c" fill-opacity="1.00" />			<defs>				<filter id="qGZXDejl" x="-46.08%" y="-46.08%" width="238.25%" height="238.25%" filterUnits="objectBoundingBox">					<feOffset dx="0.00" dy="0.00" in="SourceAlpha" result="shadowOffsetOuter1" />					<feGaussianBlur stdDeviation="79.70" in="shadowOffsetOuter1" result="shadowBlurOuter1" />					<feFlood flood-color="#fcfcfc" flood-opacity="1.00" />					<feComposite in2="shadowBlurOuter1" operator="in" />					<feMerge>						<feMergeNode />						<feMergeNode in="SourceGraphic" />					</feMerge>				</filter>			</defs>			<path d="M-15.0158,172.949 C-110.533,172.949 -187.964,95.5168 -187.964,2.84217e-14 C-187.964,-95.5168 -110.533,-172.949 -15.0158,-172.949 C80.5011,-172.949 157.933,-95.5168 157.933,0 C157.933,95.5168 80.5011,172.949 -15.0158,172.949 Z " fill="#ffffff" fill-opacity="1.00" filter="url(#qGZXDejl)" />			<path d="M156.897,-499.058 C113.941,-499.058 79.1181,-533.88 79.1181,-576.836 C79.1181,-619.792 113.941,-654.615 156.897,-654.615 C199.853,-654.615 234.675,-619.792 234.675,-576.836 C234.675,-533.88 199.853,-499.058 156.897,-499.058 Z " fill="#5183ab" fill-opacity="1.00" />			<path d="M-551.871,308.847 C-525.11,337.442 -518.904,381.235 -539.5,416.909 C-547.824,431.325 -559.483,442.613 -572.941,450.362 C-571.525,453.314 -569.986,456.234 -568.321,459.117 C-533.035,520.235 -454.884,541.175 -393.766,505.889 C-332.648,470.603 -311.708,392.452 -346.994,331.334 C-382.28,270.216 -460.432,249.275 -521.549,284.562 C-533.137,291.252 -543.281,299.483 -551.871,308.847 Z " fill="#b08e5c" fill-opacity="1.00" />			<path d="M357.346,63.8018 C377.437,29.0029 421.934,17.0799 456.733,37.1711 C491.532,57.2622 503.455,101.759 483.363,136.558 C463.272,171.357 418.775,183.28 383.976,163.189 C349.178,143.098 337.255,98.6006 357.346,63.8018 Z " fill="#533c3a" fill-opacity="1.00" />			<path d="M428.399,172.505 C407.195,174.85 385.157,167.893 368.899,151.635 C340.482,123.217 340.482,77.1425 368.899,48.7246 C373.721,43.9027 379.051,39.899 384.717,36.7135 C379.975,39.3899 375.54,42.6042 371.512,46.3039 C371.917,46.4125 372.377,46.3185 372.782,46.427 C376.024,47.2956 377.546,50.5265 376.475,53.7137 C375.567,56.2932 373.146,58.0332 369.905,57.1646 C367.271,56.4589 365.408,55.3083 365.249,52.66 C358.295,60.7851 353.095,70.4661 350.164,81.4062 C349.621,83.4322 349.132,85.2556 348.846,87.1332 C349.968,86.9994 351.846,87.2854 352.859,87.5568 C359.598,89.1457 361.834,95.3903 360.259,101.266 C358.794,106.736 353.548,110.107 348.266,109.56 C351.024,130.059 362.31,148.718 379.617,160.304 C380.945,156.968 384.028,155.188 387.837,155.558 C392.052,156.036 394.613,161.065 393.528,165.117 C393.31,165.927 392.891,166.683 392.525,167.237 C395.456,168.456 398.643,169.527 401.884,170.396 C410.788,172.782 419.746,173.414 428.399,172.505 Z M477.454,145.301 C480.01,142.075 482.253,138.682 484.183,135.164 C480.538,134.758 477.075,136.992 476.73,139.857 C476.239,141.689 476.577,143.744 477.454,145.301 Z M493.123,100.368 C493.139,93.9486 492.312,87.527 490.64,81.2846 C489.084,81.5258 487.968,82.5182 487.592,83.9216 C487.103,85.745 488.087,87.7457 490.113,88.2886 C490.721,88.4514 491.383,88.4117 492.099,88.1694 C492.759,92.1342 493.112,96.2219 493.123,100.368 Z M451.884,34.5747 C447.909,32.6812 443.706,31.1228 439.302,29.9425 C432.939,28.2377 426.552,27.418 420.275,27.4112 C431.098,27.3995 441.923,29.7873 451.884,34.5747 Z M391.1,82.6036 C389.96,86.8582 392.061,91.9812 396.464,93.3781 C400.719,94.5181 406.533,90.6475 407.673,86.393 C408.867,81.9359 405.941,77.4603 401.484,76.266 C397.229,75.126 392.24,78.3491 391.1,82.6036 Z M378.892,133.835 C381.892,133.987 383.596,132.49 384.613,129.505 C385.373,126.669 382.62,123.977 379.783,123.217 C376.947,122.457 374.823,124.711 374.063,127.547 C373.303,130.383 375.893,133.683 378.892,133.835 Z M408.269,50.9416 C412.321,52.0273 416.782,49.9655 417.814,46.1161 C418.899,42.0642 416.729,38.0084 412.88,36.977 C408.828,35.8913 404.11,38.1014 403.078,41.9507 C402.047,45.8 404.42,49.9101 408.269,50.9416 Z M441.803,50.5899 C443.829,51.1327 446.858,49.5556 447.198,47.4754 C447.741,45.4494 445.69,43.3798 443.664,42.837 C441.84,42.3484 439.839,43.3323 439.297,45.3582 C438.754,47.3842 439.777,50.047 441.803,50.5899 Z M432.727,160.637 C438.603,162.212 443.513,157.664 445.141,151.587 C446.77,145.509 441.966,140.747 435.888,139.119 C429.81,137.49 424.495,141.929 422.866,148.007 C421.238,154.084 426.65,159.009 432.727,160.637 Z M419.204,114.671 C418.444,117.508 419.804,121.346 422.586,122.309 C425.423,123.069 429.844,120.345 430.604,117.509 C431.364,114.672 428.463,111.723 425.626,110.963 C422.79,110.203 419.964,111.835 419.204,114.671 Z M450.692,96.8342 C458.593,98.9514 467.743,96.4088 469.915,88.3049 C472.032,80.4037 468.773,71.4962 460.669,69.3248 C452.768,67.2077 443.238,71.1684 441.121,79.0697 C438.949,87.1735 442.791,94.7171 450.692,96.8342 Z " fill="#010102" fill-opacity="0.30" />			<path d="M91.1108,431.63 C141.443,403.618 204.955,421.711 232.967,472.044 C260.98,522.376 242.886,585.888 192.554,613.901 C142.221,641.913 78.7099,623.82 50.6971,573.487 C22.6844,523.154 40.7782,459.643 91.1108,431.63 Z " fill="#a06d87" fill-opacity="1.00" />			<path d="M455.263,218.346 C473.757,199.852 503.742,199.852 522.237,218.346 C540.731,236.841 540.731,266.826 522.237,285.32 C503.742,303.815 473.757,303.815 455.263,285.32 C436.768,266.826 436.768,236.841 455.263,218.346 Z " fill="#909090" fill-opacity="1.00" />			<g>				<path d="M-346.537,-483.719 C-340.832,-490.294 -341.752,-500.056 -348.084,-505.55 C-354.659,-511.255 -369.249,-504.279 -384.652,-495.874 L-539.9,-412.884 C-565.657,-392.547 -564.25,-353.336 -542.334,-334.319 C-520.417,-315.302 -487.459,-317.865 -468.686,-339.993 L-346.537,-483.719 Z " fill="#ce5f2f" fill-opacity="1.00" />				<path d="M-387.414,-455.128 C-383.32,-460.178 -384.713,-467.816 -390.122,-472.201 C-395.739,-476.754 -406.874,-471.523 -418.559,-465.189 L-536.451,-402.685 C-555.565,-387.186 -551.792,-356.543 -533.069,-341.365 C-514.346,-326.187 -488.299,-327.699 -474.861,-344.701 L-387.414,-455.128 Z " fill="#ce882f" fill-opacity="1.00" />				<path d="M-528.283,-397.368 C-515.293,-410.501 -494.115,-410.616 -480.983,-397.625 C-467.85,-384.634 -467.735,-363.457 -480.726,-350.324 C-493.717,-337.191 -514.894,-337.076 -528.027,-350.067 C-541.159,-363.058 -541.274,-384.235 -528.283,-397.368 Z " fill="#e8bf50" fill-opacity="1.00" />			</g>			<path d="M-526.098,370.178 C-498.712,379.715 -466.323,382.298 -434.358,371.345 C-407.779,362.485 -370.923,351.854 -348.596,371.345 C-373.758,361.068 -399.274,372.054 -420.891,380.204 C-437.547,386.583 -455.267,392.254 -477.947,390.836 C-496.21,389.743 -511.791,385.763 -526.447,380.44 C-527.565,392.866 -531.226,405.254 -537.635,416.84 C-508.874,426.162 -473.785,428.633 -442.509,420.25 C-426.916,415.997 -410.968,409.618 -393.249,408.555 C-363.868,406.552 -348.327,418.703 -334.181,431.971 C-327.379,409.248 -326.865,384.68 -333.4,361.113 C-344.772,353.04 -357.814,345.718 -374.467,344.412 C-398.919,342.994 -416.638,347.955 -436.484,353.98 C-469.688,364.162 -501.785,363.145 -528.027,353.261 C-526.871,358.814 -526.221,364.478 -526.098,370.178 Z M-571.645,451.819 C-571.385,452.346 -571.121,452.872 -570.852,453.397 C-561.485,458.584 -540.026,466.221 -514.449,468.092 C-465.422,472.265 -386.713,438.227 -351.966,468.743 C-348.325,463.543 -345.094,458.1 -342.285,452.466 C-354.088,444.419 -369.781,437.896 -387.933,436.906 C-418.765,435.134 -446.052,444.348 -474.049,446.829 C-519.813,451.269 -538.589,445.506 -555.75,440.006 C-560.652,444.546 -565.988,448.494 -571.645,451.819 Z M-441.442,268.149 C-456.74,276.921 -482.969,281.141 -504.033,276.241 C-509.735,278.512 -515.343,281.222 -520.816,284.381 C-521.633,284.853 -522.443,285.332 -523.245,285.819 C-520.187,286.471 -517.016,287.914 -514.095,288.773 C-502.754,291.962 -491.059,293.734 -476.53,293.026 C-456.736,292.036 -431.108,283.676 -421.371,272.234 C-427.935,270.344 -434.648,268.976 -441.442,268.149 Z M-364.21,306.813 C-394.941,303.876 -425.951,311.178 -455.975,313.226 C-488.23,315.942 -516.907,308.899 -530.474,290.54 C-534.742,293.536 -538.778,296.755 -542.574,300.173 C-525.254,323.847 -493.614,330.52 -454.558,327.755 C-420.949,325.067 -382.24,316.322 -350.523,323.89 C-354.651,317.728 -359.237,312.029 -364.21,306.813 Z M-367.719,487.206 C-425.231,481.044 -456.901,514.011 -465.65,522.961 C-441.077,524.684 -415.743,519.347 -392.804,506.103 C-383.493,500.727 -375.112,494.358 -367.719,487.206 Z " fill="#856d2c" fill-opacity="1.00" />			<path d="M-679.694,334.338 C-659.603,299.54 -615.106,287.617 -580.307,307.708 C-545.508,327.799 -533.585,372.296 -553.677,407.095 C-573.768,441.894 -618.265,453.817 -653.064,433.725 C-687.862,413.634 -699.785,369.137 -679.694,334.338 Z " fill="#7f655a" fill-opacity="1.00" />			<path d="M147.73,-669.438 C151.837,-669.815 155.988,-669.918 160.154,-669.737 C179.196,-698.214 196.443,-714.367 205.914,-710.164 C222.09,-702.987 209.464,-639.158 177.713,-567.598 C145.962,-496.039 107.109,-443.846 90.9337,-451.023 C81.4707,-455.222 81.8649,-478.81 90.1789,-511.991 C87.2499,-514.958 84.5397,-518.106 82.0594,-521.409 C61.0254,-455.97 56.6202,-405.895 73.9074,-398.224 C97.4446,-387.781 152.282,-459.902 196.39,-559.312 C240.497,-658.721 257.173,-747.774 233.636,-758.218 C216.341,-765.891 182.148,-728.989 147.73,-669.438 Z " fill="#7bb0c6" fill-opacity="1.00" />			<path d="M652.478,-435.526 C649.602,-447.743 647.865,-460.325 647.365,-473.129 C581.152,-412.375 547.785,-354.402 566.826,-321.423 C593.304,-275.56 712.317,-293.302 845.828,-358.958 L827.426,-403.711 C735.69,-360.152 656.019,-348.183 638.465,-378.587 C630.618,-392.18 636.312,-412.29 652.478,-435.526 Z " fill="#97a560" fill-opacity="1.00" />		</g>	</svg>