<?xml version="1.0" encoding="utf-8" ?>	<!-- Generator: Assembly 2.2 - http://assemblyapp.co -->	<svg version="1.1" xmlns="http://www.w3.org/2000/svg" xmlns:xlink="http://www.w3.org/1999/xlink" width="2048.00" height="2048.00" viewBox="0 0 2048.0 2048.0">		<g id="document" transform="matrix(1,0,0,1,1024.0,1024.0)">			<path d="M-953.16,1659.2 L-1915.15,4.41274 L-953.16,-1659.2 L957.572,-1659.2 L1915.15,4.41274 L957.572,1659.2 L-953.16,1659.2 Z " fill="none" />			<path d="M315.382,-281.489 C287.98,-376.149 238.159,-463.335 165.919,-535.576 C-232.649,-919.198 -877.831,-652.655 -1002.38,-82.2047 C-984.946,-832.011 -160.409,-1106.03 295.454,-647.673 C554.523,-388.604 557.014,29.8926 302.927,293.944 C297.945,298.926 295.454,303.908 290.471,308.89 C282.998,316.363 273.034,326.328 265.561,331.31 C360.221,303.908 447.408,254.087 519.648,181.847 C903.27,-216.721 636.727,-861.903 66.2769,-986.456 C816.083,-969.019 1090.1,-144.481 631.745,311.381 C372.676,570.451 -45.8203,572.942 -309.872,318.854 C-314.854,313.872 -319.836,311.381 -324.818,306.399 C-332.291,298.926 -339.764,288.962 -347.237,281.489 C-319.836,376.149 -270.015,463.335 -197.774,535.576 C198.303,919.198 843.485,650.164 968.037,79.7136 C953.091,832.011 128.553,1106.03 -327.309,647.673 C-586.378,388.604 -588.869,-29.8926 -334.782,-293.944 C-329.8,-298.926 -327.309,-303.908 -322.327,-308.89 C-314.854,-316.363 -304.89,-323.837 -297.416,-331.31 C-392.076,-303.908 -479.263,-254.087 -551.504,-181.847 C-935.125,216.721 -668.583,861.903 -98.1324,986.456 C-847.939,969.019 -1121.95,144.481 -663.601,-311.381 C-404.532,-570.451 13.9649,-572.942 278.016,-318.854 C282.998,-313.872 287.98,-311.381 292.963,-306.399 C300.436,-298.926 307.909,-288.962 315.382,-281.489 Z " fill="#2c1548" fill-opacity="1.00" />			<defs>				<filter id="z59jSRDR" x="-37.20%" y="-37.21%" width="211.59%" height="211.64%" filterUnits="objectBoundingBox">					<feOffset dx="0.00" dy="0.00" in="SourceAlpha" result="shadowOffsetOuter1" />					<feGaussianBlur stdDeviation="59.46" in="shadowOffsetOuter1" result="shadowBlurOuter1" />					<feFlood flood-color="#ffffff" flood-opacity="1.00" />					<feComposite in2="shadowBlurOuter1" operator="in" />					<feMerge>						<feMergeNode />						<feMergeNode in="SourceGraphic" />					</feMerge>				</filter>			</defs>			<path d="M-321.458,350.743 C-330.892,328.507 -338.974,305.71 -345.704,282.462 C-338.231,289.935 -330.758,299.899 -323.284,307.372 C-318.302,312.354 -313.32,314.846 -308.338,319.828 C-298.657,329.144 -288.767,338.115 -278.686,346.741 C-229.68,335.353 -186.832,301.043 -166.571,250.799 C-133.545,168.903 -173.106,75.8711 -255.002,42.8453 C-336.898,9.81948 -429.93,49.3809 -462.956,131.277 C-495.981,213.173 -456.42,306.204 -374.524,339.23 C-357.111,346.252 -339.194,349.993 -321.458,350.743 Z " fill="#ffffff" fill-opacity="1.00" filter="url(#z59jSRDR)" />			<path d="M-681.395,743.745 C-676.872,740.605 -672.564,737.02 -668.533,732.988 C-632.098,696.553 -632.098,637.563 -668.533,601.128 C-701.744,567.917 -753.696,564.978 -790.223,592.312 C-760.689,646.558 -724.306,697.525 -681.395,743.745 Z " fill="#b94377" fill-opacity="1.00" />			<path d="M178.725,44.2816 C127.444,60.6512 72.6784,32.3891 56.3088,-18.8925 C39.9392,-70.1741 68.2013,-124.939 119.483,-141.309 C170.764,-157.679 225.53,-129.416 241.899,-78.1348 C258.269,-26.8533 230.007,27.912 178.725,44.2816 Z " fill="#799582" fill-opacity="1.00" stroke-width="21.87" stroke="#2c1548" stroke-linecap="square" stroke-linejoin="miter" />			<path d="M729.54,206.207 C706.671,168.791 660.493,150.384 616.84,164.319 C565.559,180.688 537.296,235.454 553.666,286.735 C562.359,313.968 581.88,334.709 605.956,345.722 C616.746,336.229 627.302,326.33 637.607,316.026 C672.445,281.377 703.052,244.599 729.541,206.207 L729.54,206.207 Z " fill="#7b5653" fill-opacity="1.00" />			<path d="M-900.324,-342.48 L-900.324,-342.48 C-845.396,-433.099 -775.168,-509.572 -695.565,-569.226 C-709.082,-591.92 -728.43,-611.575 -752.95,-625.732 C-763.275,-631.693 -773.986,-636.372 -784.899,-639.819 C-853.958,-567.82 -910.492,-479.91 -948.814,-377.328 C-938.474,-366.446 -926.414,-356.846 -912.746,-348.955 C-908.662,-346.597 -904.517,-344.44 -900.324,-342.48 Z " fill="#558db5" fill-opacity="1.00" />			<path d="M284.428,-42.1257 C256.079,-32.0333 224.96,-46.8124 214.868,-75.1612 C204.776,-103.51 219.555,-134.629 247.903,-144.721 C276.252,-154.814 307.371,-140.035 317.464,-111.686 C327.556,-83.337 312.777,-52.218 284.428,-42.1257 Z " fill="#7c7c7c" fill-opacity="1.00" stroke-width="21.87" stroke="#2c1548" stroke-linecap="square" stroke-linejoin="miter" />			<path d="M108.424,-439.384 C8.06657,-487.572 -101.624,-509.482 -210.36,-505.113 C-210.731,-500.609 -210.92,-496.053 -210.92,-491.452 C-210.92,-400.883 -137.602,-327.565 -47.0327,-327.565 C25.3321,-327.565 86.6837,-374.371 108.424,-439.384 Z " fill="#b08e5c" fill-opacity="1.00" />			<path d="M-735.328,342.762 C-739.657,308.156 -741.234,273.317 -739.928,238.539 C-744.329,237.396 -748.948,236.787 -753.709,236.787 C-783.867,236.787 -808.281,261.2 -808.281,291.358 C-808.281,321.516 -783.867,345.93 -753.709,345.93 C-747.259,345.93 -741.07,344.813 -735.328,342.762 Z " fill="#9178b3" fill-opacity="1.00" />			<path d="M48.7161,-626.641 C62.2479,-618.436 75.6124,-609.641 88.7869,-600.245 C111.194,-672.71 111.224,-728.473 83.9107,-744.242 C57.3251,-759.591 10.8788,-733.56 -39.1183,-680.855 C-31.1394,-679.9 -23.1878,-678.417 -15.3156,-676.397 C5.96521,-691.71 24.2548,-697.296 36.4348,-690.263 C50.3905,-682.206 54.0116,-658.92 48.7161,-626.641 Z M-6.23835,-482.684 C-8.70446,-478.189 -11.243,-473.678 -13.8526,-469.158 C-73.7099,-365.482 -148.125,-296.542 -180.192,-315.055 C-192.652,-322.25 -196.874,-341.584 -193.866,-368.62 C-199.461,-374.373 -204.626,-380.438 -209.351,-386.766 C-230.475,-316.343 -229.986,-262.416 -203.201,-246.951 C-158.663,-221.237 -58.386,-311.657 20.9473,-449.066 C25.0539,-456.179 29.0234,-463.278 32.8528,-470.348 C19.9242,-474.866 6.88723,-478.978 -6.23835,-482.684 Z " fill="#815f51" fill-opacity="1.00" />		</g>	</svg>