<?xml version="1.0" encoding="utf-8" ?>	<!-- Generator: Assembly 2.2 - http://assemblyapp.co -->	<svg version="1.1" xmlns="http://www.w3.org/2000/svg" xmlns:xlink="http://www.w3.org/1999/xlink" width="2048.00" height="2048.00" viewBox="0 0 2048.0 2048.0">		<g id="document" transform="matrix(1,0,0,1,1024.0,1024.0)">			<path d="M-4457.99,-1210.22 L-4794.51,-2019.55 L-4462.62,-2823.89 L-3653.29,-3160.41 L-2844.45,-2826.66 L-2512.43,-2019.19 L-2844.32,-1214.85 L-3649.16,-876.474 L-4457.99,-1210.22 Z " fill="#2c1548" fill-opacity="1.00" />			<path d="M-4100.77,-1982.58 C-4147.99,-2068.3 -4174.23,-2164.5 -4174.23,-2265.96 C-4163.74,-2815.22 -3523.51,-3081.11 -3035.48,-2767.99 C-3574.24,-3282.27 -4345.66,-2895.69 -4343.91,-2253.72 C-4343.91,-1889.87 -4051.79,-1594.25 -3687.94,-1587.25 C-3680.95,-1587.25 -3675.7,-1585.5 -3668.7,-1585.5 C-3658.21,-1585.5 -3644.21,-1585.5 -3635.47,-1587.25 C-3721.18,-1540.02 -3817.39,-1513.78 -3918.84,-1513.78 C-4468.11,-1524.28 -4733.99,-2164.5 -4420.88,-2652.54 C-4935.16,-2113.78 -4548.57,-1342.36 -3906.6,-1344.11 C-3542.76,-1344.11 -3247.13,-1636.23 -3240.14,-2000.08 C-3240.14,-2007.07 -3238.39,-2012.32 -3238.39,-2019.32 C-3238.39,-2029.81 -3240.14,-2042.06 -3240.14,-2052.55 C-3192.91,-1966.84 -3166.67,-1870.63 -3166.67,-1769.17 C-3175.41,-1221.66 -3817.39,-957.525 -4305.43,-1270.64 C-3766.66,-752.863 -2995.24,-1139.45 -2996.99,-1781.42 C-2996.99,-2145.26 -3289.12,-2440.88 -3652.96,-2447.88 C-3659.96,-2447.88 -3665.2,-2449.63 -3672.2,-2449.63 C-3682.7,-2449.63 -3694.94,-2447.88 -3705.44,-2447.88 C-3619.72,-2495.11 -3523.51,-2521.35 -3422.06,-2521.35 C-2872.8,-2510.85 -2606.91,-1870.63 -2920.02,-1382.59 C-2405.75,-1921.36 -2792.33,-2692.78 -3434.3,-2691.03 C-3798.15,-2691.03 -4093.77,-2398.9 -4100.77,-2035.06 C-4100.77,-2028.06 -4102.51,-2022.82 -4102.51,-2015.82 C-4102.51,-2005.32 -4100.77,-1993.08 -4100.77,-1982.58 Z " fill="#ffffff" fill-opacity="0.06" />			<path d="M-2658.27,-2375.01 L-2806.32,-2735.07 C-2830.42,-2718.74 -2851.28,-2696.84 -2866.81,-2669.94 C-2921.72,-2574.83 -2889.14,-2453.22 -2794.03,-2398.31 C-2751.31,-2373.64 -2703.24,-2366.63 -2658.27,-2375.01 Z " fill="#83852c" fill-opacity="1.00" />			<defs>				<filter id="rmQEpYZO" x="-46.08%" y="-46.08%" width="238.25%" height="238.25%" filterUnits="objectBoundingBox">					<feOffset dx="0.00" dy="0.00" in="SourceAlpha" result="shadowOffsetOuter1" />					<feGaussianBlur stdDeviation="91.65" in="shadowOffsetOuter1" result="shadowBlurOuter1" />					<feFlood flood-color="#fcfcfc" flood-opacity="1.00" />					<feComposite in2="shadowBlurOuter1" operator="in" />					<feMerge>						<feMergeNode />						<feMergeNode in="SourceGraphic" />					</feMerge>				</filter>			</defs>			<path d="M-3670.74,-1819.56 C-3780.58,-1819.56 -3869.62,-1908.6 -3869.62,-2018.44 C-3869.62,-2128.28 -3780.58,-2217.32 -3670.74,-2217.32 C-3560.9,-2217.32 -3471.86,-2128.28 -3471.86,-2018.44 C-3471.86,-1908.6 -3560.9,-1819.56 -3670.74,-1819.56 Z " fill="#ffffff" fill-opacity="1.00" filter="url(#rmQEpYZO)" />			<path d="M-3473.05,-2592.33 C-3522.44,-2592.33 -3562.49,-2632.38 -3562.49,-2681.77 C-3562.49,-2731.17 -3522.44,-2771.21 -3473.05,-2771.21 C-3423.65,-2771.21 -3383.61,-2731.17 -3383.61,-2681.77 C-3383.61,-2632.38 -3423.65,-2592.33 -3473.05,-2592.33 Z " fill="#5183ab" fill-opacity="1.00" />			<path d="M-4288.09,-1663.28 C-4257.32,-1630.4 -4250.18,-1580.04 -4273.87,-1539.02 C-4283.44,-1522.44 -4296.85,-1509.46 -4312.32,-1500.55 C-4310.69,-1497.15 -4308.92,-1493.8 -4307.01,-1490.48 C-4266.43,-1420.2 -4176.56,-1396.12 -4106.28,-1436.7 C-4036,-1477.27 -4011.92,-1567.14 -4052.49,-1637.43 C-4093.07,-1707.71 -4182.94,-1731.79 -4253.22,-1691.21 C-4266.55,-1683.52 -4278.21,-1674.05 -4288.09,-1663.28 Z " fill="#b08e5c" fill-opacity="1.00" />			<path d="M-3242.54,-1945.07 C-3219.44,-1985.09 -3168.27,-1998.8 -3128.25,-1975.7 C-3088.23,-1952.59 -3074.52,-1901.42 -3097.63,-1861.41 C-3120.73,-1821.39 -3171.9,-1807.68 -3211.92,-1830.78 C-3251.93,-1853.89 -3265.64,-1905.06 -3242.54,-1945.07 Z " fill="#533c3a" fill-opacity="1.00" />			<path d="M-3160.83,-1820.07 C-3185.22,-1817.37 -3210.56,-1825.37 -3229.25,-1844.07 C-3261.93,-1876.75 -3261.93,-1929.73 -3229.25,-1962.41 C-3223.71,-1967.96 -3217.58,-1972.56 -3211.06,-1976.22 C-3216.52,-1973.15 -3221.62,-1969.45 -3226.25,-1965.2 C-3225.78,-1965.07 -3225.26,-1965.18 -3224.79,-1965.05 C-3221.06,-1964.05 -3219.31,-1960.34 -3220.54,-1956.67 C-3221.59,-1953.71 -3224.37,-1951.71 -3228.1,-1952.71 C-3231.13,-1953.52 -3233.27,-1954.84 -3233.45,-1957.89 C-3241.45,-1948.54 -3247.43,-1937.41 -3250.8,-1924.83 C-3251.42,-1922.5 -3251.99,-1920.4 -3252.31,-1918.24 C-3251.02,-1918.4 -3248.87,-1918.07 -3247.7,-1917.76 C-3239.95,-1915.93 -3237.38,-1908.75 -3239.19,-1901.99 C-3240.88,-1895.7 -3246.91,-1891.82 -3252.98,-1892.45 C-3249.81,-1868.88 -3236.83,-1847.42 -3216.93,-1834.1 C-3215.4,-1837.94 -3211.86,-1839.98 -3207.48,-1839.56 C-3202.63,-1839.01 -3199.68,-1833.23 -3200.93,-1828.57 C-3201.18,-1827.63 -3201.67,-1826.77 -3202.09,-1826.13 C-3198.72,-1824.73 -3195.05,-1823.49 -3191.32,-1822.5 C-3181.08,-1819.75 -3170.78,-1819.03 -3160.83,-1820.07 Z M-3104.42,-1851.35 C-3101.48,-1855.06 -3098.9,-1858.96 -3096.68,-1863.01 C-3100.88,-1863.48 -3104.86,-1860.91 -3105.26,-1857.61 C-3105.82,-1855.51 -3105.43,-1853.14 -3104.42,-1851.35 Z M-3086.4,-1903.02 C-3086.38,-1910.41 -3087.34,-1917.79 -3089.26,-1924.97 C-3091.05,-1924.69 -3092.33,-1923.55 -3092.76,-1921.94 C-3093.33,-1919.84 -3092.19,-1917.54 -3089.87,-1916.91 C-3089.17,-1916.73 -3088.4,-1916.77 -3087.58,-1917.05 C-3086.82,-1912.49 -3086.42,-1907.79 -3086.4,-1903.02 Z M-3133.83,-1978.68 C-3138.4,-1980.86 -3143.23,-1982.65 -3148.3,-1984.01 C-3155.61,-1985.97 -3162.96,-1986.91 -3170.18,-1986.92 C-3157.73,-1986.93 -3145.28,-1984.19 -3133.83,-1978.68 Z M-3203.73,-1923.45 C-3205.04,-1918.56 -3202.62,-1912.67 -3197.56,-1911.06 C-3192.66,-1909.75 -3185.98,-1914.2 -3184.67,-1919.09 C-3183.29,-1924.22 -3186.66,-1929.37 -3191.78,-1930.74 C-3196.68,-1932.05 -3202.41,-1928.34 -3203.73,-1923.45 Z M-3217.76,-1864.54 C-3214.31,-1864.36 -3212.35,-1866.09 -3211.19,-1869.52 C-3210.31,-1872.78 -3213.48,-1875.88 -3216.74,-1876.75 C-3220,-1877.62 -3222.44,-1875.03 -3223.32,-1871.77 C-3224.19,-1868.51 -3221.21,-1864.71 -3217.76,-1864.54 Z M-3183.98,-1959.86 C-3179.32,-1958.61 -3174.19,-1960.98 -3173.01,-1965.41 C-3171.76,-1970.07 -3174.25,-1974.73 -3178.68,-1975.92 C-3183.34,-1977.17 -3188.76,-1974.63 -3189.95,-1970.2 C-3191.14,-1965.77 -3188.41,-1961.05 -3183.98,-1959.86 Z M-3145.42,-1960.27 C-3143.09,-1959.64 -3139.61,-1961.46 -3139.22,-1963.85 C-3138.59,-1966.18 -3140.95,-1968.56 -3143.28,-1969.18 C-3145.38,-1969.74 -3147.68,-1968.61 -3148.3,-1966.28 C-3148.93,-1963.95 -3147.75,-1960.89 -3145.42,-1960.27 Z M-3155.86,-1833.72 C-3149.1,-1831.91 -3143.45,-1837.14 -3141.58,-1844.13 C-3139.71,-1851.11 -3145.23,-1856.59 -3152.22,-1858.46 C-3159.21,-1860.34 -3165.32,-1855.23 -3167.2,-1848.24 C-3169.07,-1841.25 -3162.84,-1835.59 -3155.86,-1833.72 Z M-3171.41,-1886.58 C-3172.28,-1883.31 -3170.72,-1878.9 -3167.52,-1877.79 C-3164.26,-1876.92 -3159.17,-1880.05 -3158.3,-1883.31 C-3157.42,-1886.57 -3160.76,-1889.97 -3164.02,-1890.84 C-3167.28,-1891.71 -3170.53,-1889.84 -3171.41,-1886.58 Z M-3135.2,-1907.09 C-3126.11,-1904.65 -3115.59,-1907.58 -3113.09,-1916.9 C-3110.66,-1925.98 -3114.41,-1936.23 -3123.72,-1938.72 C-3132.81,-1941.16 -3143.77,-1936.6 -3146.2,-1927.52 C-3148.7,-1918.2 -3144.28,-1909.52 -3135.2,-1907.09 Z " fill="#010102" fill-opacity="0.30" />			<path d="M-3548.7,-1522.09 C-3490.82,-1554.3 -3417.78,-1533.5 -3385.57,-1475.62 C-3353.36,-1417.74 -3374.16,-1344.7 -3432.04,-1312.49 C-3489.92,-1280.28 -3562.96,-1301.08 -3595.17,-1358.96 C-3627.38,-1416.84 -3606.58,-1489.88 -3548.7,-1522.09 Z " fill="#a06d87" fill-opacity="1.00" />			<path d="M-3129.94,-1767.36 C-3108.67,-1788.62 -3074.19,-1788.62 -3052.92,-1767.36 C-3031.66,-1746.09 -3031.66,-1711.61 -3052.92,-1690.34 C-3074.19,-1669.07 -3108.67,-1669.07 -3129.94,-1690.34 C-3151.21,-1711.61 -3151.21,-1746.09 -3129.94,-1767.36 Z " fill="#909090" fill-opacity="1.00" />			<g>				<path d="M-4051.97,-2574.69 C-4045.41,-2582.25 -4046.47,-2593.48 -4053.75,-2599.8 C-4061.31,-2606.36 -4078.09,-2598.34 -4095.8,-2588.67 L-4274.33,-2493.24 C-4303.95,-2469.85 -4302.33,-2424.76 -4277.13,-2402.89 C-4251.92,-2381.02 -4214.02,-2383.97 -4192.43,-2409.42 L-4051.97,-2574.69 Z " fill="#ce5f2f" fill-opacity="1.00" />				<path d="M-4098.98,-2541.82 C-4094.27,-2547.62 -4095.87,-2556.41 -4102.09,-2561.45 C-4108.55,-2566.68 -4121.35,-2560.67 -4134.79,-2553.38 L-4270.36,-2481.51 C-4292.34,-2463.69 -4288,-2428.45 -4266.47,-2410.99 C-4244.94,-2393.54 -4214.99,-2395.28 -4199.54,-2414.83 L-4098.98,-2541.82 Z " fill="#ce882f" fill-opacity="1.00" />				<path d="M-4260.97,-2475.39 C-4246.03,-2490.5 -4221.68,-2490.63 -4206.57,-2475.69 C-4191.47,-2460.75 -4191.34,-2436.4 -4206.28,-2421.3 C-4221.22,-2406.19 -4245.57,-2406.06 -4260.67,-2421 C-4275.77,-2435.94 -4275.91,-2460.29 -4260.97,-2475.39 Z " fill="#e8bf50" fill-opacity="1.00" />			</g>			<path d="M-4258.45,-1592.76 C-4226.96,-1581.79 -4189.72,-1578.82 -4152.96,-1591.41 C-4122.39,-1601.6 -4080.01,-1613.83 -4054.34,-1591.41 C-4083.27,-1603.23 -4112.61,-1590.6 -4137.47,-1581.23 C-4156.63,-1573.89 -4177,-1567.37 -4203.08,-1569 C-4224.08,-1570.26 -4242,-1574.83 -4258.86,-1580.96 C-4260.14,-1566.67 -4264.35,-1552.42 -4271.72,-1539.1 C-4238.65,-1528.38 -4198.3,-1525.54 -4162.33,-1535.18 C-4144.4,-1540.07 -4126.06,-1547.4 -4105.69,-1548.62 C-4071.9,-1550.93 -4054.03,-1536.95 -4037.76,-1521.7 C-4029.94,-1547.83 -4029.35,-1576.08 -4036.86,-1603.18 C-4049.94,-1612.46 -4064.94,-1620.88 -4084.09,-1622.39 C-4112.21,-1624.02 -4132.58,-1618.31 -4155.4,-1611.38 C-4193.59,-1599.67 -4230.5,-1600.84 -4260.67,-1612.21 C-4259.34,-1605.83 -4258.6,-1599.31 -4258.45,-1592.76 Z M-4310.83,-1498.87 C-4310.53,-1498.27 -4310.23,-1497.66 -4309.92,-1497.06 C-4299.15,-1491.09 -4274.47,-1482.31 -4245.06,-1480.16 C-4188.68,-1475.36 -4098.17,-1514.5 -4058.21,-1479.41 C-4054.03,-1485.39 -4050.31,-1491.65 -4047.08,-1498.13 C-4060.65,-1507.38 -4078.7,-1514.88 -4099.57,-1516.02 C-4135.03,-1518.06 -4166.41,-1507.46 -4198.6,-1504.61 C-4251.23,-1499.51 -4272.82,-1506.13 -4292.55,-1512.46 C-4298.19,-1507.24 -4304.33,-1502.7 -4310.83,-1498.87 Z M-4161.1,-1710.08 C-4178.7,-1700 -4208.86,-1695.14 -4233.08,-1700.78 C-4239.64,-1698.17 -4246.09,-1695.05 -4252.38,-1691.42 C-4253.32,-1690.88 -4254.25,-1690.32 -4255.17,-1689.76 C-4251.66,-1689.02 -4248.01,-1687.36 -4244.65,-1686.37 C-4231.61,-1682.7 -4218.16,-1680.66 -4201.45,-1681.48 C-4178.69,-1682.62 -4149.22,-1692.23 -4138.02,-1705.39 C-4145.57,-1707.56 -4153.29,-1709.13 -4161.1,-1710.08 Z M-4072.29,-1665.62 C-4107.63,-1669 -4143.29,-1660.6 -4177.82,-1658.25 C-4214.91,-1655.13 -4247.89,-1663.22 -4263.49,-1684.34 C-4268.4,-1680.89 -4273.04,-1677.19 -4277.4,-1673.26 C-4257.48,-1646.04 -4221.1,-1638.36 -4176.19,-1641.54 C-4137.54,-1644.63 -4093.03,-1654.69 -4056.55,-1645.99 C-4061.3,-1653.07 -4066.57,-1659.62 -4072.29,-1665.62 Z M-4076.33,-1458.18 C-4142.46,-1465.27 -4178.88,-1427.36 -4188.94,-1417.06 C-4160.68,-1415.08 -4131.55,-1421.22 -4105.17,-1436.45 C-4094.47,-1442.63 -4084.83,-1449.96 -4076.33,-1458.18 Z " fill="#856d2c" fill-opacity="1.00" />			<path d="M-4435.08,-1633.97 C-4411.98,-1673.99 -4360.81,-1687.7 -4320.79,-1664.59 C-4280.78,-1641.49 -4267.06,-1590.32 -4290.17,-1550.3 C-4313.27,-1510.29 -4364.44,-1496.58 -4404.46,-1519.68 C-4444.48,-1542.78 -4458.19,-1593.95 -4435.08,-1633.97 Z " fill="#7f655a" fill-opacity="1.00" />			<path d="M-3483.59,-2788.26 C-3478.86,-2788.69 -3474.09,-2788.81 -3469.3,-2788.6 C-3447.4,-2821.35 -3427.57,-2839.93 -3416.68,-2835.09 C-3398.08,-2826.84 -3412.6,-2753.44 -3449.11,-2671.15 C-3485.62,-2588.86 -3530.3,-2528.84 -3548.9,-2537.1 C-3559.78,-2541.92 -3559.33,-2569.05 -3549.77,-2607.21 C-3553.14,-2610.62 -3556.25,-2614.24 -3559.11,-2618.04 C-3583.29,-2542.78 -3588.36,-2485.2 -3568.48,-2476.38 C-3541.41,-2464.37 -3478.35,-2547.31 -3427.63,-2661.62 C-3376.91,-2775.94 -3357.73,-2878.34 -3384.8,-2890.35 C-3404.69,-2899.18 -3444.01,-2856.74 -3483.59,-2788.26 Z " fill="#7bb0c6" fill-opacity="1.00" />			<path d="M-2903.15,-2519.27 C-2906.46,-2533.32 -2908.46,-2547.79 -2909.03,-2562.52 C-2985.18,-2492.65 -3023.55,-2425.99 -3001.65,-2388.06 C-2971.2,-2335.32 -2834.34,-2355.72 -2680.81,-2431.22 L-2701.97,-2482.69 C-2807.46,-2432.6 -2899.08,-2418.83 -2919.27,-2453.8 C-2928.29,-2469.43 -2921.74,-2492.55 -2903.15,-2519.27 Z " fill="#97a560" fill-opacity="1.00" />			<path d="M119.153,199.502 L0.0332554,981.918 L-117.639,204.688 L-841.519,487.549 L-230.286,-0.552023 L-855.402,-499.74 L-118.25,-211.692 L0.868919,-994.109 L120.092,-206.635 L870.188,-499.74 L245.071,-0.552024 L856.305,487.549 L119.153,199.502 Z " fill="#2c1548" fill-opacity="1.00" />			<defs>				<filter id="dutBrtIs" x="-48.63%" y="-76.19%" width="245.88%" height="328.56%" filterUnits="objectBoundingBox">					<feOffset dx="0.00" dy="0.00" in="SourceAlpha" result="shadowOffsetOuter1" />					<feGaussianBlur stdDeviation="43.18" in="shadowOffsetOuter1" result="shadowBlurOuter1" />					<feFlood flood-color="#ffffff" flood-opacity="1.00" />					<feComposite in2="shadowBlurOuter1" operator="in" />					<feMerge>						<feMergeNode />						<feMergeNode in="SourceGraphic" />					</feMerge>				</filter>			</defs>			<path d="M-156.757,-227.772 L-332.836,-296.576 C-333.819,-291.057 -334.332,-285.374 -334.332,-279.572 C-334.332,-226.367 -291.201,-183.236 -237.996,-183.236 C-203.859,-183.236 -173.868,-200.992 -156.757,-227.772 Z " fill="#ffffff" fill-opacity="1.00" filter="url(#dutBrtIs)" />			<path d="M290.122,35.9094 C272.468,63.0627 275.55,99.7653 299.369,123.584 C326.728,150.943 371.086,150.943 398.445,123.584 C398.662,123.366 398.878,123.148 399.092,122.928 L290.122,35.9094 Z " fill="#a372a5" fill-opacity="1.00" />			<path d="M413.69,135.003 C418.012,160.905 416.709,178.716 408.803,181.763 C393.929,187.494 361.318,138.799 335.963,72.9991 C335.951,72.968 335.939,72.9369 335.927,72.9058 L308.395,50.9203 C311.58,60.3173 315.048,69.9074 318.789,79.6166 C354.012,171.024 400.11,238.365 421.752,230.025 C435.232,224.831 436.046,191.504 426.232,145.019 L413.69,135.003 Z M312.459,-51.9437 C313.604,-54.2414 315.109,-55.7964 316.985,-56.5196 C317.536,-56.7316 318.11,-56.8691 318.708,-56.9341 L335.515,-70.3557 C318.906,-92.9558 304.031,-104.78 294.201,-100.992 C282.267,-96.3933 280.261,-69.7416 286.769,-31.4293 L312.459,-51.9437 Z " fill="#65437a" fill-opacity="1.00" />			<path d="M-577.015,276.532 C-575.442,278.953 -573.704,281.305 -571.8,283.574 C-546.571,313.631 -501.751,317.545 -471.694,292.315 C-441.637,267.085 -437.723,222.266 -462.952,192.209 C-464.097,190.846 -465.281,189.537 -466.502,188.281 L-577.015,276.532 Z " fill="#909090" fill-opacity="1.00" />			<path d="M106.671,281.509 C104.803,281.038 102.886,280.676 100.926,280.43 C74.9564,277.174 51.2639,295.587 48.0078,321.557 C44.7517,347.528 63.1651,371.22 89.1352,374.476 C90.3129,374.624 91.4859,374.727 92.6525,374.787 L106.671,281.509 Z " fill="#96885b" fill-opacity="1.00" />		</g>	</svg>